<svg width="20" height="16" viewBox="0 0 20 16" fill="none" xmlns="http://www.w3.org/2000/svg">
<path d="M17.4752 2.88576H13.0599C13.0588 2.88209 13.0571 2.87858 13.0554 2.87507L11.6308 0.784401C11.2938 0.293295 10.7363 -0.000171042 10.1407 7.47914e-08H1.80178C1.32419 0.000501405 0.866152 0.1905 0.528239 0.528239C0.190517 0.866127 0.000513352 1.32402 0 1.80178V13.8886C0.000501331 14.3664 0.1905 14.8244 0.528239 15.1622C0.866127 15.5001 1.32415 15.6901 1.80178 15.6906H17.4748C17.9526 15.6901 18.4105 15.5001 18.7484 15.1622C19.0861 14.8245 19.2761 14.3664 19.2766 13.8886V4.6881C19.2761 4.21034 19.0861 3.7523 18.7484 3.41456C18.4105 3.07667 17.9526 2.88666 17.4748 2.88615L17.4752 2.88576ZM8.71357 2.88576L7.28196 0.785898C7.19138 0.653719 7.08327 0.534403 6.96094 0.430963H10.1408C10.5944 0.43113 11.0188 0.65472 11.2753 1.02889L12.5413 2.88594L8.71357 2.88576ZM18.0472 13.057C18.0472 13.1761 17.9507 13.2725 17.8318 13.2725C17.7126 13.2725 17.6162 13.1761 17.6162 13.057V10.7955C17.6162 10.6765 17.7126 10.58 17.8318 10.58C17.9507 10.58 18.0472 10.6765 18.0472 10.7955V13.057ZM18.0472 9.7663C18.0472 9.88545 17.9507 9.98187 17.8318 9.98187C17.7126 9.98187 17.6162 9.88545 17.6162 9.7663V5.52045C17.6162 5.40148 17.7126 5.30505 17.8318 5.30505C17.9507 5.30505 18.0472 5.40147 18.0472 5.52045V9.7663Z" fill="#A0A0A0"/>
</svg>
