<svg width="20" height="20" viewBox="0 0 20 20" fill="none" xmlns="http://www.w3.org/2000/svg">
<path d="M7.68126 0H1.53627C0.689537 0 0 0.689536 0 1.53627V7.68126C0 8.52819 0.689341 9.21753 1.53627 9.21753H7.68126C8.52819 9.21753 9.21753 8.52819 9.21753 7.68126V1.53627C9.21753 0.689536 8.52819 0 7.68126 0Z" fill="url(#paint0_linear_148_50)"/>
<path d="M18.4352 0H12.2902C11.4432 0 10.7539 0.689341 10.7539 1.53627V7.68126C10.7539 8.52819 11.4432 9.21753 12.2902 9.21753H18.4352C19.2821 9.21753 19.9714 8.52819 19.9714 7.68126V1.53627C19.9714 0.689536 19.2819 0 18.4352 0Z" fill="url(#paint1_linear_148_50)"/>
<path d="M7.68126 10.7541H1.53627C0.689341 10.7541 0 11.4434 0 12.2904V18.4353C0 19.2823 0.689341 19.9716 1.53627 19.9716H7.68126C8.52819 19.9716 9.21753 19.2823 9.21753 18.4353V12.2904C9.21753 11.4434 8.52819 10.7541 7.68126 10.7541Z" fill="url(#paint2_linear_148_50)"/>
<path d="M18.4352 10.7541H12.2902C11.4432 10.7541 10.7539 11.4435 10.7539 12.2904V18.4354C10.7539 19.2823 11.4432 19.9716 12.2902 19.9716H18.4352C19.2821 19.9716 19.9714 19.2823 19.9714 18.4354V12.2904C19.9714 11.4435 19.2819 10.7541 18.4352 10.7541Z" fill="url(#paint3_linear_148_50)"/>
<defs>
<linearGradient id="paint0_linear_148_50" x1="0" y1="4.60876" x2="9.21753" y2="4.60876" gradientUnits="userSpaceOnUse">
<stop stop-color="#145332"/>
<stop offset="1" stop-color="#237E54"/>
</linearGradient>
<linearGradient id="paint1_linear_148_50" x1="10.7539" y1="4.60876" x2="19.9714" y2="4.60876" gradientUnits="userSpaceOnUse">
<stop stop-color="#145332"/>
<stop offset="1" stop-color="#237E54"/>
</linearGradient>
<linearGradient id="paint2_linear_148_50" x1="0" y1="15.3629" x2="9.21753" y2="15.3629" gradientUnits="userSpaceOnUse">
<stop stop-color="#145332"/>
<stop offset="1" stop-color="#237E54"/>
</linearGradient>
<linearGradient id="paint3_linear_148_50" x1="10.7539" y1="15.3629" x2="19.9714" y2="15.3629" gradientUnits="userSpaceOnUse">
<stop stop-color="#145332"/>
<stop offset="1" stop-color="#237E54"/>
</linearGradient>
</defs>
</svg>
