<svg width="20" height="18" viewBox="0 0 20 18" fill="none" xmlns="http://www.w3.org/2000/svg">
<path d="M10.3206 3.93158H11.3035C11.5749 3.93158 11.7949 4.20301 11.7949 4.42304V10.3204C11.7949 10.5918 11.5749 10.8119 11.3035 10.8119H10.3206C10.0491 10.8119 9.8291 10.5404 9.8291 10.3204V4.42304C9.8291 4.15161 10.0491 3.93158 10.3206 3.93158Z" fill="url(#paint0_linear_148_93)"/>
<path d="M10.3206 11.7951C9.92954 11.7946 9.5548 11.6391 9.2784 11.3627C9.00204 11.0864 8.84657 10.7116 8.8462 10.3207V4.42334C8.84657 4.03248 9.00203 3.65769 9.2784 3.38115C9.55477 3.10479 9.92953 2.94932 10.3206 2.94895L12.6074 2.93377L12.67 2.92682C13.883 2.79312 14.5674 2.13869 14.7128 0.983093H2.45733C1.80583 0.983825 1.18121 1.24282 0.720469 1.70356C0.259738 2.16429 0.000749172 2.78892 0 3.44042V12.2867C0.000731613 12.9382 0.259724 13.5629 0.720469 14.0234C1.1812 14.4841 1.80583 14.7433 2.45733 14.7439H5.89757V17.2012C5.89757 17.3874 6.00274 17.5575 6.16919 17.6407C6.33545 17.7239 6.53463 17.7062 6.68368 17.5948L10.4842 14.7438H14.2522C14.9037 14.7433 15.5285 14.4841 15.9891 14.0234C16.4498 13.5628 16.709 12.9382 16.7096 12.2867V11.7952L10.3206 11.7951Z" fill="url(#paint1_linear_148_93)"/>
<path d="M17.692 2.94879H17.6911C17.6814 1.21047 17.5682 4.83005e-07 16.2176 4.83005e-07C16.0874 -0.000182409 15.9623 0.0515808 15.8701 0.143762C15.7779 0.235943 15.7261 0.36105 15.7261 0.491462C15.7261 3.03055 14.0019 3.76853 12.7773 3.90408L12.7775 10.8124H17.6921C18.2134 10.8116 18.7131 10.6044 19.0816 10.2359C19.4502 9.86736 19.6574 9.36765 19.658 8.84655V4.91485C19.6574 4.39357 19.4502 3.89387 19.0816 3.52533C18.7131 3.15678 18.2134 2.94954 17.6921 2.94898L17.692 2.94879Z" fill="url(#paint2_linear_148_93)"/>
<defs>
<linearGradient id="paint0_linear_148_93" x1="9.8291" y1="7.37173" x2="11.7949" y2="7.37173" gradientUnits="userSpaceOnUse">
<stop stop-color="#145332"/>
<stop offset="1" stop-color="#237E54"/>
</linearGradient>
<linearGradient id="paint1_linear_148_93" x1="0" y1="9.33787" x2="16.7096" y2="9.33787" gradientUnits="userSpaceOnUse">
<stop stop-color="#145332"/>
<stop offset="1" stop-color="#237E54"/>
</linearGradient>
<linearGradient id="paint2_linear_148_93" x1="12.7773" y1="5.40619" x2="19.658" y2="5.40619" gradientUnits="userSpaceOnUse">
<stop stop-color="#145332"/>
<stop offset="1" stop-color="#237E54"/>
</linearGradient>
</defs>
</svg>
