<svg width="22" height="22" viewBox="0 0 22 22" fill="none" xmlns="http://www.w3.org/2000/svg">
<path d="M8.38746 4.34818C6.15316 4.58885 4.38281 6.47929 4.38281 8.78245C4.38281 11.2574 6.39367 13.2512 8.85158 13.2512C11.1546 13.2512 13.0625 11.4981 13.2859 9.24658H8.38742L8.38746 4.34818Z" fill="url(#paint0_linear_148_36)"/>
<path d="M9.29785 4.34821V8.3356H13.2853C13.079 6.23877 11.4119 4.57164 9.29785 4.34821ZM10.1916 7.44185V5.48251C11.0854 5.84344 11.8073 6.5653 12.1682 7.4591H10.1916V7.44185Z" fill="url(#paint1_linear_148_36)"/>
<path d="M20.848 18.1322L17.1355 14.523L16.4482 15.1933L16.2762 15.3653L15.4857 14.5919C15.6746 14.3857 15.8294 14.1622 15.9841 13.956C17.084 12.4264 17.634 10.6217 17.634 8.81698C17.634 6.54823 16.7746 4.29668 15.056 2.57799C13.3888 0.910828 11.1718 0 8.81699 0C6.46244 0 4.24517 0.928076 2.578 2.57799C-0.859334 6.01533 -0.859334 11.6186 2.578 15.0385C4.24517 16.7057 6.46222 17.6165 8.81699 17.6165C10.6216 17.6165 12.3575 17.0666 13.8185 16.0526C14.0934 15.8636 14.3341 15.6572 14.5919 15.451L15.3824 16.2415L14.4371 17.1868L18.1496 20.8133C18.5105 21.1742 18.9747 21.3633 19.4901 21.3633C19.9885 21.3633 20.4697 21.1743 20.8306 20.8133C21.1915 20.4524 21.3806 19.9883 21.3806 19.4728C21.3981 18.957 21.1917 18.493 20.848 18.1321L20.848 18.1322ZM13.1484 13.1307C10.7594 15.5197 6.89239 15.5197 4.52046 13.1307C2.13128 10.7417 2.13128 6.8747 4.52029 4.48573C5.70626 3.29977 7.27024 2.69831 8.83418 2.69831C10.3981 2.69831 11.9623 3.2999 13.1481 4.48573C14.334 5.6717 14.9355 7.23568 14.9355 8.79962C14.9357 10.3637 14.3513 11.9277 13.1482 13.1308L13.1484 13.1307Z" fill="url(#paint2_linear_148_36)"/>
<defs>
<linearGradient id="paint0_linear_148_36" x1="4.38281" y1="8.7997" x2="13.2859" y2="8.7997" gradientUnits="userSpaceOnUse">
<stop stop-color="#145332"/>
<stop offset="1" stop-color="#237E54"/>
</linearGradient>
<linearGradient id="paint1_linear_148_36" x1="9.29785" y1="6.3419" x2="13.2852" y2="6.3419" gradientUnits="userSpaceOnUse">
<stop stop-color="#145332"/>
<stop offset="1" stop-color="#237E54"/>
</linearGradient>
<linearGradient id="paint2_linear_148_36" x1="0" y1="10.6816" x2="21.3816" y2="10.6816" gradientUnits="userSpaceOnUse">
<stop stop-color="#145332"/>
<stop offset="1" stop-color="#237E54"/>
</linearGradient>
</defs>
</svg>
