<svg width="20" height="20" viewBox="0 0 20 20" fill="none" xmlns="http://www.w3.org/2000/svg">
<circle cx="9.65091" cy="9.65091" r="9.65091" fill="#A0A0A0"/>
<path d="M9.02734 14.5615C9.02734 14.9067 9.30717 15.1865 9.65234 15.1865C9.99752 15.1865 10.2773 14.9067 10.2773 14.5615L9.65234 14.5615L9.02734 14.5615ZM10.0943 4.29833C9.85021 4.05426 9.45448 4.05426 9.2104 4.29833L5.23293 8.27581C4.98885 8.51989 4.98885 8.91561 5.23293 9.15969C5.477 9.40377 5.87273 9.40377 6.11681 9.15969L9.65234 5.62416L13.1879 9.15969C13.432 9.40377 13.8277 9.40377 14.0718 9.15969C14.3158 8.91561 14.3158 8.51989 14.0718 8.27581L10.0943 4.29833ZM9.65234 14.5615L10.2773 14.5615L10.2773 4.74027L9.65234 4.74027L9.02734 4.74027L9.02734 14.5615L9.65234 14.5615Z" fill="white"/>
</svg>
