<svg width="22" height="22" viewBox="0 0 22 22" fill="none" xmlns="http://www.w3.org/2000/svg">
<path d="M14.5187 17.6352C14.9847 17.9459 15.6108 17.8486 15.9608 17.4114L18.1204 14.7119C18.493 14.2461 18.4174 13.5666 17.9518 13.194C17.4861 12.8215 16.8065 12.8971 16.434 13.3626L14.8928 15.2891L14.0967 14.7585C13.6006 14.4278 12.9301 14.5618 12.5994 15.0581C12.2687 15.5542 12.4027 16.2247 12.899 16.5554L14.5187 17.6352Z" fill="#A0A0A0"/>
<path fill-rule="evenodd" clip-rule="evenodd" d="M3.23945 0C1.45036 0 0 1.45031 0 3.23945V14.0374C0 15.8265 1.45031 17.2767 3.23945 17.2767H9.00675C9.89628 19.7932 12.2962 21.5959 15.1171 21.5959C18.6953 21.5959 21.5958 18.6953 21.5958 15.1172V3.23955C21.5958 1.45047 20.1457 0.000102821 18.3564 0.000102821L3.23945 0ZM2.15965 14.0376V7.55891H19.4363V10.2883C18.2902 9.2624 16.7766 8.63871 15.1171 8.63871C11.5391 8.63871 8.6384 11.5394 8.6384 15.1174H3.2394C2.64302 15.1174 2.1596 14.6342 2.1596 14.0378L2.15965 14.0376ZM2.15965 5.399H19.4363V3.2394C19.4363 2.64302 18.9529 2.1596 18.3565 2.1596H3.23925C2.64287 2.1596 2.15945 2.64304 2.15945 3.2394L2.15965 5.399ZM10.7983 15.1173C10.7983 12.732 12.732 10.7983 15.1173 10.7983C17.5028 10.7983 19.4366 12.732 19.4366 15.1173C19.4366 17.5028 17.5028 19.4366 15.1173 19.4366C12.732 19.4366 10.7983 17.5028 10.7983 15.1173Z" fill="#A0A0A0"/>
</svg>
