<svg width="22" height="22" viewBox="0 0 22 22" fill="none" xmlns="http://www.w3.org/2000/svg">
<path d="M20.91 9.41472L12.7278 6.08435C12.6952 6.07107 12.66 6.07396 12.6265 6.06501C12.2654 5.93483 11.8864 5.8416 11.4933 5.79542L15.5341 2.65496C15.8594 2.40268 15.9183 1.93507 15.666 1.61033C15.4143 1.28647 14.9444 1.22701 14.6214 1.47929L7.64569 6.89973C7.61885 6.92051 7.6047 6.95024 7.58161 6.97419C7.28142 7.2282 7.01413 7.51685 6.77891 7.83202L6.07894 2.75563C6.02237 2.34835 5.64424 2.06317 5.23988 2.11974C4.83261 2.17631 4.54829 2.55156 4.604 2.9588L5.81082 11.71C5.81602 11.7463 5.83391 11.7764 5.84344 11.8099C5.91329 12.1969 6.02442 12.5701 6.17625 12.9223L1.43784 10.9933C1.05596 10.8369 0.622429 11.0216 0.467696 11.402C0.312691 11.7834 0.495985 12.2175 0.876416 12.3722L9.05861 15.7034C9.0921 15.7167 9.12645 15.7153 9.16051 15.7237C9.5216 15.8533 9.89915 15.9462 10.2923 15.9924L6.25236 19.1314C5.92764 19.3836 5.86904 19.8521 6.12132 20.176C6.26796 20.3651 6.48761 20.4641 6.70958 20.4641C6.86978 20.4641 7.03056 20.4135 7.16593 20.3076L14.1411 14.8872C14.1665 14.8678 14.1792 14.8395 14.2014 14.8173C14.503 14.5627 14.7718 14.2724 15.0079 13.956L15.7078 19.0324C15.7584 19.4053 16.0779 19.6749 16.4442 19.6749C16.4777 19.6749 16.512 19.6726 16.5469 19.6674C16.9542 19.6117 17.2394 19.2356 17.1828 18.8284L15.976 10.0772C15.9717 10.0452 15.9538 10.0198 15.9463 9.99003C15.8764 9.59834 15.7653 9.2208 15.6111 8.86485L20.3487 10.7933C20.4402 10.8306 20.5354 10.8485 20.6292 10.8485C20.9234 10.8485 21.2019 10.6735 21.3188 10.3837C21.4744 10.0039 21.2911 9.5692 20.9101 9.41418L20.91 9.41472ZM10.8938 14.542C8.88281 14.542 7.24622 12.9054 7.24622 10.8944C7.24622 8.88335 8.88281 7.24677 10.8938 7.24677C12.9048 7.24677 14.5414 8.88335 14.5414 10.8944C14.5414 12.9054 12.9048 14.542 10.8938 14.542Z" fill="white"/>
<path d="M10.8935 0C4.88689 0 0 4.88689 0 10.8935C0 16.9001 4.88689 21.787 10.8935 21.787C16.9001 21.787 21.787 16.9001 21.787 10.8935C21.787 4.88689 16.9001 0 10.8935 0ZM10.8935 20.4589C5.61938 20.4589 1.32816 16.1678 1.32816 10.8935C1.32816 5.61925 5.61925 1.32816 10.8935 1.32816C16.1674 1.32816 20.4589 5.61925 20.4589 10.8935C20.4589 16.1674 16.1676 20.4589 10.8935 20.4589Z" fill="white"/>
</svg>
