<svg width="46" height="46" viewBox="0 0 46 46" fill="none" xmlns="http://www.w3.org/2000/svg">
<path d="M43.7864 19.7145L26.6527 12.7407C26.5844 12.7129 26.5106 12.7189 26.4405 12.7002C25.6844 12.4276 24.8907 12.2323 24.0675 12.1356L32.529 5.55943C33.2102 5.03115 33.3335 4.05198 32.8053 3.37195C32.2782 2.69378 31.2942 2.56927 30.6178 3.09754L16.0105 14.4481C15.9543 14.4916 15.9247 14.5539 15.8764 14.604C15.2477 15.1359 14.688 15.7404 14.1955 16.4003L12.7297 5.77024C12.6113 4.91739 11.8195 4.32021 10.9727 4.43867C10.1199 4.55714 9.5245 5.34291 9.64115 6.19568L12.1683 24.5209C12.1792 24.597 12.2166 24.6599 12.2366 24.73C12.3828 25.5406 12.6155 26.3221 12.9335 27.0595L3.01114 23.0202C2.21148 22.6926 1.30365 23.0794 0.979636 23.8761C0.65505 24.6745 1.03887 25.5836 1.83551 25.9076L18.9692 32.8833C19.0393 32.9111 19.1113 32.9081 19.1826 32.9256C19.9387 33.197 20.7293 33.3916 21.5525 33.4883L13.0929 40.0614C12.4129 40.5897 12.2902 41.5707 12.8185 42.2489C13.1255 42.6448 13.5855 42.8521 14.0503 42.8521C14.3858 42.8521 14.7224 42.7464 15.0059 42.5245L29.6121 31.174C29.6652 31.1335 29.6918 31.0743 29.7384 31.0277C30.37 30.4946 30.9327 29.8866 31.4271 29.2241L32.8929 39.8542C32.9987 40.6352 33.6678 41.1997 34.4348 41.1997C34.5049 41.1997 34.5768 41.1949 34.65 41.184C35.5028 41.0673 36.1 40.2798 35.9815 39.427L33.4544 21.1018C33.4453 21.0347 33.4079 20.9815 33.3922 20.9193C33.2459 20.099 33.0132 19.3085 32.6904 18.5631L42.6109 22.6014C42.8025 22.6793 43.002 22.7168 43.1984 22.7168C43.8143 22.7168 44.3976 22.3505 44.6424 21.7437C44.9682 20.9482 44.5844 20.038 43.7865 19.7134L43.7864 19.7145ZM22.8122 30.4511C18.6011 30.4511 15.174 27.024 15.174 22.8129C15.174 18.6019 18.6011 15.1748 22.8122 15.1748C27.0233 15.1748 30.4503 18.6019 30.4503 22.8129C30.4503 27.024 27.0233 30.4511 22.8122 30.4511Z" fill="url(#paint0_linear_54_1893)"/>
<path d="M22.8113 0C10.2333 0 0 10.2333 0 22.8113C0 35.3893 10.2333 45.6226 22.8113 45.6226C35.3893 45.6226 45.6226 35.3893 45.6226 22.8113C45.6226 10.2333 35.3893 0 22.8113 0ZM22.8113 42.8414C11.7671 42.8414 2.78119 33.8557 2.78119 22.8113C2.78119 11.7668 11.7668 2.78119 22.8113 2.78119C33.8549 2.78119 42.8414 11.7668 42.8414 22.8113C42.8414 33.8549 33.8553 42.8414 22.8113 42.8414Z" fill="url(#paint1_linear_54_1893)"/>
<defs>
<linearGradient id="paint0_linear_54_1893" x1="22.8113" y1="2.77002" x2="22.8113" y2="42.8521" gradientUnits="userSpaceOnUse">
<stop stop-color="#144D32"/>
<stop offset="0.355769" stop-color="#207950"/>
<stop offset="0.711538" stop-color="#217D53"/>
</linearGradient>
<linearGradient id="paint1_linear_54_1893" x1="22.8113" y1="0" x2="22.8113" y2="45.6226" gradientUnits="userSpaceOnUse">
<stop stop-color="#144D32"/>
<stop offset="0.355769" stop-color="#207950"/>
<stop offset="0.711538" stop-color="#217D53"/>
</linearGradient>
</defs>
</svg>
