<svg width="35" height="35" viewBox="0 0 35 35" fill="none" xmlns="http://www.w3.org/2000/svg">
<path d="M15.7595 13.434H18.7595V26.25H15.7595V13.434ZM17.2715 11.322C16.7275 11.322 16.2715 11.154 15.9035 10.818C15.5355 10.466 15.3515 10.034 15.3515 9.522C15.3515 9.01 15.5355 8.586 15.9035 8.25C16.2715 7.898 16.7275 7.722 17.2715 7.722C17.8155 7.722 18.2715 7.89 18.6395 8.226C19.0075 8.546 19.1915 8.954 19.1915 9.45C19.1915 9.978 19.0075 10.426 18.6395 10.794C18.2875 11.146 17.8315 11.322 17.2715 11.322Z" fill="#00A6FB"/>
<circle cx="17.25" cy="17.25" r="16.25" stroke="#00A6FB" stroke-width="2"/>
</svg>
