<svg width="191" height="46" viewBox="0 0 191 46" fill="none" xmlns="http://www.w3.org/2000/svg">
<path d="M65.5097 33.5913C64.0724 33.5913 62.7377 33.3393 61.5057 32.8353C60.2737 32.3126 59.1911 31.5939 58.2577 30.6793C57.3431 29.7459 56.6337 28.6633 56.1297 27.4313C55.6444 26.1993 55.4017 24.8739 55.4017 23.4553C55.4017 22.0366 55.6444 20.7113 56.1297 19.4793C56.6337 18.2473 57.3431 17.1739 58.2577 16.2593C59.1911 15.3446 60.2644 14.6259 61.4777 14.1033C62.7097 13.5806 64.0537 13.3193 65.5097 13.3193C67.0777 13.3193 68.4591 13.5806 69.6537 14.1033C70.8484 14.6073 71.9031 15.3073 72.8177 16.2033L70.2417 18.7793C69.7004 18.1819 69.0377 17.7153 68.2537 17.3793C67.4697 17.0433 66.5551 16.8753 65.5097 16.8753C64.5951 16.8753 63.7551 17.0339 62.9897 17.3513C62.2431 17.6499 61.5897 18.0979 61.0297 18.6953C60.4697 19.2739 60.0404 19.9739 59.7417 20.7953C59.4431 21.5979 59.2937 22.4846 59.2937 23.4553C59.2937 24.4446 59.4431 25.3406 59.7417 26.1433C60.0404 26.9459 60.4697 27.6459 61.0297 28.2433C61.5897 28.8219 62.2431 29.2699 62.9897 29.5873C63.7551 29.9046 64.5951 30.0633 65.5097 30.0633C66.6111 30.0633 67.5537 29.8953 68.3377 29.5593C69.1404 29.2233 69.8124 28.7473 70.3537 28.1313L72.9297 30.7073C72.0151 31.6219 70.9511 32.3313 69.7377 32.8353C68.5244 33.3393 67.1151 33.5913 65.5097 33.5913ZM75.185 33.3113V19.7873H78.853V33.3113H75.185ZM78.853 25.8353L77.425 24.8833C77.593 23.2219 78.0784 21.9153 78.881 20.9633C79.6837 19.9926 80.841 19.5073 82.353 19.5073C83.0064 19.5073 83.5944 19.6193 84.117 19.8433C84.6397 20.0486 85.1157 20.3939 85.545 20.8793L83.249 23.5113C83.0437 23.2873 82.7917 23.1193 82.493 23.0073C82.213 22.8953 81.8864 22.8393 81.513 22.8393C80.729 22.8393 80.085 23.0913 79.581 23.5953C79.0957 24.0806 78.853 24.8273 78.853 25.8353ZM86.8335 33.3113V19.7873H90.5295V33.3113H86.8335ZM88.6815 17.6033C88.0841 17.6033 87.5895 17.4073 87.1975 17.0153C86.8055 16.6046 86.6095 16.1006 86.6095 15.5033C86.6095 14.9246 86.8055 14.4299 87.1975 14.0193C87.5895 13.6086 88.0841 13.4033 88.6815 13.4033C89.2975 13.4033 89.7921 13.6086 90.1655 14.0193C90.5575 14.4299 90.7535 14.9246 90.7535 15.5033C90.7535 16.1006 90.5575 16.6046 90.1655 17.0153C89.7921 17.4073 89.2975 17.6033 88.6815 17.6033ZM93.7788 33.3113V19.7873H97.4468V33.3113H93.7788ZM102.599 33.3113V25.3313C102.599 24.5473 102.347 23.9406 101.843 23.5113C101.357 23.0633 100.751 22.8393 100.023 22.8393C99.5375 22.8393 99.0988 22.9419 98.7068 23.1473C98.3148 23.3339 98.0068 23.6139 97.7828 23.9873C97.5588 24.3606 97.4468 24.8086 97.4468 25.3313L96.0188 24.6313C96.0188 23.5859 96.2428 22.6806 96.6908 21.9153C97.1575 21.1499 97.7828 20.5619 98.5668 20.1513C99.3508 19.7219 100.237 19.5073 101.227 19.5073C102.16 19.5073 103.009 19.7219 103.775 20.1513C104.54 20.5619 105.147 21.1499 105.595 21.9153C106.043 22.6619 106.267 23.5673 106.267 24.6313V33.3113H102.599ZM111.419 33.3113V25.3313C111.419 24.5473 111.167 23.9406 110.663 23.5113C110.177 23.0633 109.571 22.8393 108.843 22.8393C108.376 22.8393 107.937 22.9419 107.527 23.1473C107.135 23.3339 106.827 23.6139 106.603 23.9873C106.379 24.3606 106.267 24.8086 106.267 25.3313L104.167 24.8273C104.241 23.7446 104.531 22.8113 105.035 22.0273C105.539 21.2246 106.201 20.6086 107.023 20.1793C107.844 19.7313 108.759 19.5073 109.767 19.5073C110.775 19.5073 111.68 19.7219 112.483 20.1513C113.285 20.5619 113.92 21.1593 114.387 21.9433C114.853 22.7273 115.087 23.6606 115.087 24.7433V33.3113H111.419ZM124.528 33.5913C123.109 33.5913 121.849 33.2926 120.748 32.6953C119.647 32.0793 118.769 31.2393 118.116 30.1753C117.481 29.1113 117.164 27.8979 117.164 26.5353C117.164 25.1913 117.472 23.9966 118.088 22.9513C118.723 21.8873 119.581 21.0473 120.664 20.4313C121.747 19.7966 122.951 19.4793 124.276 19.4793C125.583 19.4793 126.731 19.7779 127.72 20.3753C128.728 20.9539 129.512 21.7566 130.072 22.7833C130.651 23.7913 130.94 24.9393 130.94 26.2273C130.94 26.4699 130.921 26.7219 130.884 26.9833C130.865 27.2259 130.819 27.5059 130.744 27.8233L119.376 27.8513V25.1073L129.036 25.0793L127.552 26.2273C127.515 25.4246 127.365 24.7526 127.104 24.2113C126.861 23.6699 126.497 23.2593 126.012 22.9793C125.545 22.6806 124.967 22.5313 124.276 22.5313C123.548 22.5313 122.913 22.6993 122.372 23.0353C121.831 23.3526 121.411 23.8099 121.112 24.4073C120.832 24.9859 120.692 25.6766 120.692 26.4793C120.692 27.3006 120.841 28.0193 121.14 28.6353C121.457 29.2326 121.905 29.6993 122.484 30.0353C123.063 30.3526 123.735 30.5113 124.5 30.5113C125.191 30.5113 125.816 30.3993 126.376 30.1753C126.936 29.9326 127.421 29.5779 127.832 29.1113L129.988 31.2673C129.335 32.0326 128.532 32.6113 127.58 33.0033C126.647 33.3953 125.629 33.5913 124.528 33.5913ZM133.6 33.3113V13.6273H137.408V33.3113H133.6ZM136.4 33.3113V29.9233H146.424V33.3113H136.4ZM154.907 33.5913C153.488 33.5913 152.228 33.2926 151.127 32.6953C150.026 32.0793 149.148 31.2393 148.495 30.1753C147.86 29.1113 147.543 27.8979 147.543 26.5353C147.543 25.1913 147.851 23.9966 148.467 22.9513C149.102 21.8873 149.96 21.0473 151.043 20.4313C152.126 19.7966 153.33 19.4793 154.655 19.4793C155.962 19.4793 157.11 19.7779 158.099 20.3753C159.107 20.9539 159.891 21.7566 160.451 22.7833C161.03 23.7913 161.319 24.9393 161.319 26.2273C161.319 26.4699 161.3 26.7219 161.263 26.9833C161.244 27.2259 161.198 27.5059 161.123 27.8233L149.755 27.8513V25.1073L159.415 25.0793L157.931 26.2273C157.894 25.4246 157.744 24.7526 157.483 24.2113C157.24 23.6699 156.876 23.2593 156.391 22.9793C155.924 22.6806 155.346 22.5313 154.655 22.5313C153.927 22.5313 153.292 22.6993 152.751 23.0353C152.21 23.3526 151.79 23.8099 151.491 24.4073C151.211 24.9859 151.071 25.6766 151.071 26.4793C151.071 27.3006 151.22 28.0193 151.519 28.6353C151.836 29.2326 152.284 29.6993 152.863 30.0353C153.442 30.3526 154.114 30.5113 154.879 30.5113C155.57 30.5113 156.195 30.3993 156.755 30.1753C157.315 29.9326 157.8 29.5779 158.211 29.1113L160.367 31.2673C159.714 32.0326 158.911 32.6113 157.959 33.0033C157.026 33.3953 156.008 33.5913 154.907 33.5913ZM172.687 33.3113V25.5553C172.687 24.7526 172.435 24.0993 171.931 23.5953C171.427 23.0913 170.774 22.8393 169.971 22.8393C169.449 22.8393 168.982 22.9513 168.571 23.1753C168.161 23.3993 167.834 23.7166 167.591 24.1273C167.367 24.5379 167.255 25.0139 167.255 25.5553L165.827 24.8273C165.827 23.7633 166.051 22.8393 166.499 22.0553C166.966 21.2526 167.601 20.6273 168.403 20.1793C169.225 19.7313 170.149 19.5073 171.175 19.5073C172.165 19.5073 173.051 19.7593 173.835 20.2633C174.619 20.7486 175.235 21.3926 175.683 22.1953C176.131 22.9793 176.355 23.8286 176.355 24.7433V33.3113H172.687ZM163.587 33.3113V19.7873H167.255V33.3113H163.587ZM183.958 33.6193C183.193 33.6193 182.437 33.5166 181.69 33.3113C180.962 33.1059 180.29 32.8259 179.674 32.4713C179.058 32.0979 178.526 31.6499 178.078 31.1273L180.262 28.9153C180.729 29.4379 181.27 29.8299 181.886 30.0913C182.502 30.3526 183.183 30.4833 183.93 30.4833C184.527 30.4833 184.975 30.3993 185.274 30.2313C185.591 30.0633 185.75 29.8113 185.75 29.4753C185.75 29.1019 185.582 28.8126 185.246 28.6073C184.929 28.4019 184.509 28.2339 183.986 28.1033C183.463 27.9539 182.913 27.7953 182.334 27.6273C181.774 27.4406 181.233 27.2073 180.71 26.9273C180.187 26.6286 179.758 26.2273 179.422 25.7233C179.105 25.2006 178.946 24.5286 178.946 23.7073C178.946 22.8486 179.151 22.1019 179.562 21.4673C179.991 20.8326 180.598 20.3379 181.382 19.9833C182.166 19.6286 183.09 19.4513 184.154 19.4513C185.274 19.4513 186.282 19.6473 187.178 20.0393C188.093 20.4313 188.849 21.0193 189.446 21.8033L187.234 24.0153C186.823 23.5113 186.357 23.1473 185.834 22.9233C185.33 22.6993 184.779 22.5873 184.182 22.5873C183.641 22.5873 183.221 22.6713 182.922 22.8393C182.642 23.0073 182.502 23.2406 182.502 23.5393C182.502 23.8753 182.661 24.1366 182.978 24.3233C183.314 24.5099 183.743 24.6779 184.266 24.8273C184.789 24.9579 185.33 25.1166 185.89 25.3033C186.469 25.4713 187.01 25.7139 187.514 26.0313C188.037 26.3486 188.457 26.7686 188.774 27.2913C189.11 27.8139 189.278 28.4859 189.278 29.3073C189.278 30.6326 188.802 31.6873 187.85 32.4713C186.898 33.2366 185.601 33.6193 183.958 33.6193Z" fill="#000614"/>
<path d="M43.7864 19.7145L26.6527 12.7407C26.5844 12.7129 26.5106 12.7189 26.4405 12.7002C25.6844 12.4276 24.8907 12.2323 24.0675 12.1356L32.529 5.55943C33.2102 5.03115 33.3335 4.05198 32.8053 3.37195C32.2782 2.69378 31.2942 2.56927 30.6178 3.09754L16.0105 14.4481C15.9543 14.4916 15.9247 14.5539 15.8764 14.604C15.2477 15.1359 14.688 15.7404 14.1955 16.4003L12.7297 5.77024C12.6113 4.91739 11.8195 4.32021 10.9727 4.43867C10.1199 4.55714 9.5245 5.34291 9.64115 6.19568L12.1683 24.5209C12.1792 24.597 12.2166 24.6599 12.2366 24.73C12.3828 25.5406 12.6155 26.3221 12.9335 27.0595L3.01114 23.0202C2.21148 22.6926 1.30365 23.0794 0.979636 23.8761C0.65505 24.6745 1.03887 25.5836 1.83551 25.9076L18.9692 32.8833C19.0393 32.9111 19.1113 32.9081 19.1826 32.9256C19.9387 33.197 20.7293 33.3916 21.5525 33.4883L13.0929 40.0614C12.4129 40.5897 12.2902 41.5707 12.8185 42.2489C13.1255 42.6448 13.5855 42.8521 14.0503 42.8521C14.3858 42.8521 14.7224 42.7464 15.0059 42.5245L29.6121 31.174C29.6652 31.1335 29.6918 31.0743 29.7384 31.0277C30.37 30.4946 30.9327 29.8866 31.4271 29.2241L32.8929 39.8542C32.9987 40.6352 33.6678 41.1997 34.4348 41.1997C34.5049 41.1997 34.5768 41.1949 34.65 41.184C35.5028 41.0673 36.1 40.2798 35.9815 39.427L33.4544 21.1018C33.4453 21.0347 33.4079 20.9815 33.3922 20.9193C33.2459 20.099 33.0132 19.3085 32.6904 18.5631L42.6109 22.6014C42.8025 22.6793 43.002 22.7168 43.1984 22.7168C43.8143 22.7168 44.3976 22.3505 44.6424 21.7437C44.9682 20.9482 44.5844 20.038 43.7865 19.7134L43.7864 19.7145ZM22.8122 30.4511C18.6011 30.4511 15.174 27.024 15.174 22.8129C15.174 18.6019 18.6011 15.1748 22.8122 15.1748C27.0233 15.1748 30.4503 18.6019 30.4503 22.8129C30.4503 27.024 27.0233 30.4511 22.8122 30.4511Z" fill="url(#paint0_linear_54_1891)"/>
<path d="M22.8113 0C10.2333 0 0 10.2333 0 22.8113C0 35.3893 10.2333 45.6226 22.8113 45.6226C35.3893 45.6226 45.6226 35.3893 45.6226 22.8113C45.6226 10.2333 35.3893 0 22.8113 0ZM22.8113 42.8414C11.7671 42.8414 2.78119 33.8557 2.78119 22.8113C2.78119 11.7668 11.7668 2.78119 22.8113 2.78119C33.8549 2.78119 42.8414 11.7668 42.8414 22.8113C42.8414 33.8549 33.8553 42.8414 22.8113 42.8414Z" fill="url(#paint1_linear_54_1891)"/>
<defs>
<linearGradient id="paint0_linear_54_1891" x1="22.8113" y1="2.77002" x2="22.8113" y2="42.8521" gradientUnits="userSpaceOnUse">
<stop stop-color="#144D32"/>
<stop offset="0.355769" stop-color="#207950"/>
<stop offset="0.711538" stop-color="#217D53"/>
</linearGradient>
<linearGradient id="paint1_linear_54_1891" x1="22.8113" y1="0" x2="22.8113" y2="45.6226" gradientUnits="userSpaceOnUse">
<stop stop-color="#144D32"/>
<stop offset="0.355769" stop-color="#207950"/>
<stop offset="0.711538" stop-color="#217D53"/>
</linearGradient>
</defs>
</svg>
