<svg width="26" height="23" viewBox="0 0 26 23" fill="none" xmlns="http://www.w3.org/2000/svg">
<path d="M12.8235 17.6836C7.17798 17.6836 2.71914 12.021 2.53928 11.7817C2.25156 11.4227 2.25156 10.9045 2.53928 10.5855C2.7191 10.3462 7.17798 4.68359 12.8235 4.68359C18.469 4.68359 22.9278 10.3462 23.1077 10.5855C23.3954 10.9444 23.3954 11.4626 23.1077 11.7817C22.9279 12.0207 18.5052 17.6836 12.8235 17.6836ZM4.33718 11.1834C5.5957 12.5791 8.97588 15.8491 12.8235 15.8491C16.7069 15.8491 20.0515 12.5791 21.3098 11.1834C20.0513 9.78767 16.6711 6.51767 12.8235 6.51767C8.97588 6.51767 5.59549 9.78767 4.33718 11.1834Z" fill="#D9D9D9"/>
<path d="M12.8236 9.23008C13.9382 9.23008 14.8374 10.1073 14.8374 11.1842C14.8374 12.2609 13.9385 13.1384 12.8236 13.1384C11.7089 13.1384 10.8098 12.2612 10.8098 11.1842C10.846 10.0678 11.7449 9.23008 12.8236 9.23008ZM12.8236 7.35571C10.8098 7.35571 9.15588 9.0705 9.15588 11.1842C9.15588 13.2978 10.81 15.0126 12.8236 15.0126C14.8374 15.0126 16.5275 13.2978 16.5275 11.1842C16.5275 9.0705 14.8733 7.35571 12.8236 7.35571Z" fill="#D9D9D9"/>
<path d="M6.05286 2.51831L19.8381 19.459" stroke="#D9D9D9" stroke-width="2" stroke-linecap="round"/>
</svg>
