<svg width="26" height="23" viewBox="0 0 26 23" fill="none" xmlns="http://www.w3.org/2000/svg">
<path d="M12.8234 17.6836C7.17786 17.6836 2.71902 12.021 2.53915 11.7817C2.25143 11.4227 2.25143 10.9045 2.53915 10.5855C2.71898 10.3462 7.17786 4.68359 12.8234 4.68359C18.4689 4.68359 22.9277 10.3462 23.1076 10.5855C23.3953 10.9444 23.3953 11.4626 23.1076 11.7817C22.9277 12.0207 18.5051 17.6836 12.8234 17.6836ZM4.33705 11.1834C5.59558 12.5791 8.97576 15.8491 12.8234 15.8491C16.7068 15.8491 20.0514 12.5791 21.3097 11.1834C20.0511 9.78767 16.671 6.51767 12.8234 6.51767C8.97576 6.51767 5.59537 9.78767 4.33705 11.1834Z" fill="#D9D9D9"/>
<path d="M12.8234 9.23008C13.9381 9.23008 14.8372 10.1073 14.8372 11.1842C14.8372 12.2609 13.9384 13.1384 12.8234 13.1384C11.7088 13.1384 10.8096 12.2612 10.8096 11.1842C10.8459 10.0678 11.7448 9.23008 12.8234 9.23008ZM12.8234 7.35571C10.8096 7.35571 9.15576 9.0705 9.15576 11.1842C9.15576 13.2978 10.8099 15.0126 12.8234 15.0126C14.8372 15.0126 16.5274 13.2978 16.5274 11.1842C16.5274 9.0705 14.8732 7.35571 12.8234 7.35571Z" fill="#D9D9D9"/>
</svg>
